<?xml version="1.0" encoding="UTF-8"?>
<svg id="Layer_1" data-name="Layer 1" xmlns="http://www.w3.org/2000/svg" viewBox="0 0 716.81 93.57">
  <defs>
    <style>
      .cls-1 {
        fill: #fff;
      }
    </style>
  </defs>
  <path class="cls-1" d="M31.35,6.53H0v85.23h31.35c23.54,0,42.62-19.08,42.62-42.62S54.88,6.53,31.35,6.53ZM30.01,68.64h-5.29V29.65h5.29c10.76,0,19.49,8.73,19.49,19.49s-8.73,19.49-19.49,19.49ZM144.36,60.7c0,18.15-14.72,32.87-32.87,32.87s-32.87-14.72-32.87-32.87,14.72-32.87,32.87-32.87,32.87,14.72,32.87,32.87ZM122.59,60.71c0-2.84-1.08-5.68-3.24-7.84-2.17-2.16-5.01-3.24-7.85-3.24s-5.68,1.08-7.84,3.24c-2.16,2.17-3.25,5.01-3.25,7.85s1.08,5.68,3.25,7.84c2.17,2.16,5.01,3.24,7.85,3.24s5.68-1.08,7.84-3.24c2.16-2.17,3.24-5.01,3.24-7.85Z"/>
  <path class="cls-1" d="M462.55,91.76h24.35V29.65h-24.35v62.11ZM637.85,46.41c7.86-4.54,12.18-12.33,12.18-18.28,0-6.48-5.25-11.73-11.73-11.73-5.83,0-10.67,4.26-11.58,9.83-.1.62-.16,1.26-.16,1.91,0,6.48,5.26,11.74,11.74,11.74.37,0,.73-.02,1.09-.05-.34,2.06-1.22,3.98-2.55,5.58l1.01,1.01ZM708.01,73.18c0-4.77-1.89-9.12-5.91-12.49-8.01-6.09-20.39-7.1-24.08-8.51-2.38-.91-3.4-2.32-3.4-3.62,0-1.66,1.65-3.13,4.22-3.13,3.96,0,5.2,2.17,6.38,5.56l21.67-2.83c-3.3-11.83-13.08-20.33-28.35-20.33s-27.74,8.42-27.74,20.37c0,4.77,1.89,9.12,5.91,12.49,8.01,6.09,20.39,7.1,24.08,8.51,2.38.91,3.4,2.32,3.4,3.62,0,1.66-1.65,3.13-4.22,3.13-4,0-5.9-2.35-7.29-5.44l-22.94,2.69c3.3,11.83,15.28,20.34,30.54,20.34s27.74-8.42,27.74-20.37ZM631.18,60.7c0,18.15-14.72,32.87-32.87,32.87s-32.87-14.72-32.87-32.87,14.72-32.87,32.87-32.87,32.87,14.72,32.87,32.87ZM609.4,60.71c0-2.84-1.08-5.68-3.24-7.84-2.17-2.16-5.01-3.24-7.85-3.24s-5.68,1.08-7.84,3.24c-2.16,2.17-3.25,5.01-3.25,7.85s1.08,5.68,3.25,7.84c2.17,2.16,5.01,3.24,7.85,3.24s5.68-1.08,7.84-3.24c2.16-2.17,3.24-5.01,3.24-7.85ZM474.73,0c-3.26,0-6.52,1.25-9.01,3.74-2.49,2.48-3.74,5.74-3.74,9s1.25,6.52,3.74,9.01c2.48,2.49,5.74,3.74,9,3.74s6.52-1.25,9.01-3.74c2.49-2.48,3.74-5.74,3.74-9s-1.25-6.52-3.74-9.01c-2.48-2.49-5.74-3.74-9-3.74ZM559.61,51.32c-.48-12.84-10.83-23.12-23.68-23.49-.24,0-.47-.01-.71-.01-7.02,0-13.71,3.03-18.35,8.32l-6.49-6.49h-15.05v62.11h24.35v-33.23c0-4.3,3.49-7.79,7.79-7.79s7.79,3.49,7.79,7.79v33.23h24.35v-40.44h0Z"/>
  <g>
    <path class="cls-1" d="M326.16,91.76v-34.71c0-3.17-2.57-5.73-5.73-5.73s-5.73,2.57-5.73,5.73v34.71h-24.35v-34.71c0-3.17-2.57-5.73-5.73-5.73s-5.73,2.57-5.73,5.73v34.71h-24.35V29.65h15.05l6.49,6.49c3.98-5.19,10.12-8.26,16.65-8.32.07,0,.14,0,.21,0,6.33,0,12.33,2.82,16.37,7.7,4.5-4.92,10.85-7.7,17.49-7.7,13,0,23.57,10.5,23.67,23.5l.04,40.44h-24.35Z"/>
    <path class="cls-1" d="M430.19,91.76v-34.71c0-3.17-2.57-5.73-5.73-5.73s-5.73,2.57-5.73,5.73v34.71h-24.35v-34.71c0-3.17-2.57-5.73-5.73-5.73s-5.73,2.57-5.73,5.73v34.71h-24.35V29.65h15.05l6.49,6.49c3.98-5.19,10.12-8.26,16.65-8.32.07,0,.14,0,.21,0,6.33,0,12.33,2.82,16.37,7.7,4.5-4.92,10.85-7.7,17.49-7.7,13,0,23.57,10.5,23.67,23.5l.04,40.44h-24.35Z"/>
    <path class="cls-1" d="M222.15,91.76v-34.71c0-3.17-2.57-5.73-5.73-5.73s-5.73,2.57-5.73,5.73v34.71h-24.35v-34.71c0-3.17-2.57-5.73-5.73-5.73s-5.73,2.57-5.73,5.73v34.71h-24.35V29.65h15.05l6.49,6.49c3.98-5.19,10.12-8.26,16.65-8.32.07,0,.14,0,.21,0,6.33,0,12.33,2.82,16.37,7.7,4.5-4.92,10.85-7.7,17.49-7.7,13,0,23.57,10.5,23.67,23.5l.04,40.44h-24.35Z"/>
  </g>
  <path class="cls-1" d="M704.03,33.36v-6.01h-2.14v-1.74h6.14v1.74h-2.14v6.01h-1.86ZM709.04,33.36v-7.75h1.74l2.67,4.28h-.91l2.64-4.28h1.64v7.75h-1.79v-5.31l.35.03-2.01,3.22h-.91l-1.99-3.22.33-.03v5.31h-1.76Z"/>
</svg>